<mxfile host="app.diagrams.net" modified="2024-03-13T14:48:50.670Z" agent="Mozilla/5.0 (Windows NT 10.0; Win64; x64) AppleWebKit/537.36 (KHTML, like Gecko) Chrome/121.0.0.0 Safari/537.36 Edg/121.0.0.0" version="24.0.5" etag="LuY5uIDteHNzEve4x2V4" type="github">
  <diagram name="第 1 页" id="81JypQjD4qwoYPLPaIoE">
    <mxGraphModel>
      <root>
        <mxCell id="0" />
        <mxCell id="1" parent="0" />
      </root>
    </mxGraphModel>
  </diagram>
</mxfile>
